<svg width="234" height="67" viewBox="0 0 234 67" fill="none"
  xmlns="http://www.w3.org/2000/svg">
  <path d="M0 57.8272C0 62.2455 3.58172 65.8272 8 65.8272C12.4183 65.8272 16 62.2455 16 57.8272C16 53.4089 12.4183 49.8272 8 49.8272C3.58172 49.8272 0 53.4089 0 57.8272ZM23.9818 51.3036L24.926 52.4691L24.9335 52.463L24.941 52.4568L23.9818 51.3036ZM43.9805 28.3291L44.516 29.7303L43.9805 28.3291ZM41.1682 34.5691L39.6716 34.4683L41.1682 34.5691ZM36.2987 64.6345L36.7359 66.0693L36.8538 66.0334L36.9643 65.9787L36.2987 64.6345ZM34.8665 54.1399L35.6783 55.4013L34.8665 54.1399ZM61.2191 46.1982V47.6982H61.9886L62.4375 47.0731L61.2191 46.1982ZM96.9721 12.1619L98.2059 13.015L96.9721 12.1619ZM99.8886 4.22013L98.5246 4.84432L99.8886 4.22013ZM94.4462 2.23468L94.845 3.68071L94.4462 2.23468ZM85.5665 10.4601L84.39 9.52964L85.5665 10.4601ZM51.1936 64.9181L49.8235 64.3076C49.4869 65.0632 49.8254 65.9486 50.5802 66.2869C51.335 66.6252 52.2211 66.2886 52.5611 65.5346L51.1936 64.9181ZM62.3648 43.7658L61.2092 42.8095L61.1486 42.8827L61.0977 42.9631L62.3648 43.7658ZM79.7856 33.7182L80.0885 35.1873L79.7856 33.7182ZM92.1547 35.9873L93.4442 35.2211L92.1547 35.9873ZM91.5297 42.2273L90.2042 41.5252L91.5297 42.2273ZM77.2597 47.9L77.202 46.4011L77.2597 47.9ZM67.2343 45.3473L67.8064 43.9606L66.3061 43.3416L65.807 44.886L67.2343 45.3473ZM69.2394 62.9326L68.2991 64.1014L68.3639 64.1534L68.4339 64.198L69.2394 62.9326ZM95.8263 53.5727L96.9072 54.6127L96.9645 54.5532L97.0148 54.4878L95.8263 53.5727ZM113.394 33.2151C113.899 32.5587 113.777 31.6169 113.121 31.1115C112.464 30.6061 111.522 30.7285 111.017 31.3849L113.394 33.2151ZM95.8263 55.8418L94.5394 55.0711L94.4669 55.1922L94.4183 55.3247L95.8263 55.8418ZM105.045 62.9326L104.518 61.528L105.045 62.9326ZM123.95 51.5872L124.945 52.709L125.003 52.6581L125.055 52.6017L123.95 51.5872ZM126.814 48.4672L126.01 47.2008L125.843 47.3069L125.709 47.4528L126.814 48.4672ZM160.041 20.3873L158.901 19.4122L158.88 19.4369L158.86 19.4625L160.041 20.3873ZM166.343 8.19103L167.813 8.488L166.343 8.19103ZM163.765 3.9365L164.332 2.54775L163.765 3.9365ZM151.682 10.4601L150.648 9.37332L151.682 10.4601ZM130.824 39.6745L129.547 38.888L129.52 38.9325L129.495 38.9787L130.824 39.6745ZM122.231 60.3799L120.778 60.7534L122.231 60.3799ZM127.673 64.3508L127.772 62.8541L127.673 64.3508ZM151.448 54.9909L150.59 53.7602L151.448 54.9909ZM157.463 50.7363L158.337 51.9556L158.626 51.7481L158.792 51.4326L157.463 50.7363ZM158.652 48.4672L157.868 47.1884L157.516 47.4046L157.324 47.771L158.652 48.4672ZM192.982 19.8201L194.222 20.664L192.982 19.8201ZM198.711 7.34012L200.199 7.15226L198.711 7.34012ZM195.56 3.9365L195.237 5.40145L195.56 3.9365ZM182.384 12.4456L183.464 13.4866L182.384 12.4456ZM161.187 43.6454L159.86 42.9462L161.187 43.6454ZM159.755 64.3508L159.965 62.8656L159.755 64.3508ZM181.238 56.6927L182.03 57.9661L181.238 56.6927ZM202.148 40.2418L201.2 39.079L202.148 40.2418ZM211.028 32.5837L209.861 31.641L211.028 32.5837ZM207.877 29.18L206.821 28.1142L207.877 29.18ZM206.106 36.2709L207.603 36.1717L206.106 36.2709ZM204.387 62.3654L205.704 63.0837L204.387 62.3654ZM213.033 48.1836L212.538 46.7676L213.033 48.1836ZM217.636 46.1982C217.636 50.6164 221.218 54.1982 225.636 54.1982C230.055 54.1982 233.636 50.6164 233.636 46.1982C233.636 41.7799 230.055 38.1982 225.636 38.1982C221.218 38.1982 217.636 41.7799 217.636 46.1982ZM8 59.3272C13.9154 59.3272 20.5793 55.9906 24.926 52.4691L23.0375 50.1381C18.9819 53.4238 12.9693 56.3272 8 56.3272V59.3272ZM23.9818 51.3036C24.941 52.4568 24.9411 52.4567 24.9412 52.4566C24.9414 52.4565 24.9416 52.4563 24.942 52.456C24.9426 52.4554 24.9436 52.4546 24.9449 52.4535C24.9475 52.4513 24.9515 52.4481 24.9566 52.4438C24.967 52.4352 24.9824 52.4223 25.0028 52.4054C25.0435 52.3715 25.104 52.3212 25.1828 52.2556C25.3404 52.1244 25.5716 51.9319 25.866 51.6866C26.4549 51.1961 27.2967 50.4945 28.3086 49.6498C30.3323 47.9607 33.037 45.6993 35.7599 43.4111C38.4821 41.1234 41.2256 38.8063 43.3258 37.0066C44.3751 36.1075 45.2691 35.333 45.9212 34.7542C46.2463 34.4657 46.5189 34.219 46.7234 34.0267C46.8248 33.9312 46.9184 33.8409 46.9966 33.7608C47.0469 33.7094 47.1777 33.5763 47.282 33.4214L44.7934 31.7459C44.8619 31.6442 44.916 31.5976 44.8514 31.6636C44.8148 31.7011 44.7552 31.7594 44.6678 31.8416C44.4946 32.0045 44.247 32.229 43.9298 32.5105C43.2974 33.0718 42.4191 33.8329 41.3737 34.7286C39.2847 36.5187 36.5501 38.8284 33.8299 41.1144C31.1104 43.3997 28.4085 45.6588 26.3863 47.3467C25.3752 48.1906 24.5341 48.8916 23.9459 49.3816C23.6518 49.6266 23.4209 49.8189 23.2635 49.9498C23.1849 50.0153 23.1246 50.0655 23.084 50.0993C23.0637 50.1161 23.0483 50.1289 23.038 50.1375C23.0329 50.1418 23.029 50.145 23.0264 50.1472C23.0251 50.1482 23.0241 50.149 23.0235 50.1496C23.0232 50.1499 23.0229 50.1501 23.0228 50.1502C23.0226 50.1503 23.0225 50.1504 23.9818 51.3036ZM47.282 33.4214C48.039 32.2969 48.397 31.1474 48.397 29.4637H45.397C45.397 30.6163 45.1821 31.1686 44.7934 31.7459L47.282 33.4214ZM48.397 29.4637C48.397 28.8507 48.2388 28.2442 47.8644 27.7278C47.4909 27.2127 46.9805 26.8954 46.4604 26.7258C45.4709 26.4031 44.3668 26.5757 43.445 26.928L44.516 29.7303C44.7767 29.6307 45.0098 29.5785 45.1975 29.5616C45.39 29.5441 45.4961 29.5668 45.5303 29.5779C45.5538 29.5856 45.4943 29.5697 45.4357 29.4889C45.3762 29.4068 45.397 29.3676 45.397 29.4637H48.397ZM43.445 26.928C41.6256 27.6233 40.75 29.3121 40.3086 30.6915C39.8535 32.1136 39.7296 33.6063 39.6716 34.4683L42.6648 34.6699C42.7211 33.8338 42.83 32.6551 43.1658 31.6059C43.5152 30.514 43.9886 29.9318 44.516 29.7303L43.445 26.928ZM39.6716 34.4683C39.5907 35.6699 39.6901 37.0061 39.8398 38.4104C40.0019 39.9318 40.1904 41.2826 40.3735 43.0757C40.7188 46.4584 40.9235 50.4366 40.2565 55.0603L43.2257 55.4887C43.9413 50.5286 43.7163 46.2814 43.358 42.771C43.1892 41.1175 42.9574 39.3548 42.8229 38.0926C42.6759 36.7132 42.6025 35.5955 42.6648 34.6699L39.6716 34.4683ZM40.2565 55.0603C39.8305 58.0129 39.3591 59.6721 38.6979 60.7824C38.0825 61.8156 37.2239 62.5026 35.6332 63.2902L36.9643 65.9787C38.8108 65.0645 40.2437 64.0497 41.2754 62.3175C42.2612 60.6623 42.7924 58.4925 43.2257 55.4887L40.2565 55.0603ZM35.8615 63.1996C34.2332 63.6957 33.2131 63.5026 32.6719 63.1617C32.1861 62.8557 31.7603 62.2222 31.7832 60.9748L28.7837 60.9196C28.7471 62.9111 29.467 64.6884 31.0729 65.7C32.6232 66.6766 34.6405 66.7078 36.7359 66.0693L35.8615 63.1996ZM31.7832 60.9748C31.8081 59.6209 32.1356 58.7035 32.7005 57.9249C33.3006 57.0977 34.2392 56.3276 35.6783 55.4013L34.0547 52.8786C32.5313 53.8591 31.2081 54.8732 30.2722 56.1632C29.3011 57.5018 28.8183 59.0346 28.7837 60.9196L31.7832 60.9748ZM35.6783 55.4013C41.216 51.837 45.3169 50.7575 49.6587 49.3244L48.7184 46.4756C44.467 47.8788 39.9746 49.0684 34.0547 52.8786L35.6783 55.4013ZM49.6587 49.3244C53.7035 47.9893 56.7324 47.6982 61.2191 47.6982V44.6982C56.5396 44.6982 53.1672 45.0071 48.7184 46.4756L49.6587 49.3244ZM62.4375 47.0731C66.8546 40.9223 72.4293 37.1001 78.7233 32.4031C84.9906 27.7259 91.7915 22.2919 98.2059 13.015L95.7383 11.3088C89.6013 20.1846 83.1088 25.3869 76.929 29.9988C70.7758 34.5908 64.7497 38.7104 60.0007 45.3232L62.4375 47.0731ZM98.2059 13.015C99.014 11.8463 100.171 10.3579 100.896 8.89545C101.647 7.37823 102.133 5.51962 101.253 3.59595L98.5246 4.84432C98.8632 5.58425 98.776 6.41604 98.2074 7.56356C97.6117 8.76591 96.701 9.91655 95.7383 11.3088L98.2059 13.015ZM101.253 3.59595C99.8128 0.449862 96.4249 0.133066 94.0475 0.788654L94.845 3.68071C96.5819 3.20176 97.9817 3.65795 98.5246 4.84432L101.253 3.59595ZM94.0475 0.788654C91.3907 1.52126 89.6782 2.81517 88.2561 4.41717C87.5672 5.19321 86.9478 6.0401 86.3398 6.88758C85.7213 7.74982 85.1096 8.61981 84.39 9.52964L86.7431 11.3906C87.5174 10.4115 88.1797 9.46955 88.7774 8.6363C89.3858 7.78827 89.9251 7.05606 90.4997 6.40873C91.6046 5.164 92.838 4.23414 94.845 3.68071L94.0475 0.788654ZM84.39 9.52964C68.6297 29.4577 57.0485 48.2822 49.8262 64.3016L52.5611 65.5346C59.6609 49.7869 71.0991 31.1715 86.7431 11.3906L84.39 9.52964ZM52.5638 65.5286C56.8388 55.9334 58.29 53.0014 63.632 44.5685L61.0977 42.9631C55.6592 51.5483 54.1417 54.6155 49.8235 64.3076L52.5638 65.5286ZM63.5205 44.7221C66.4748 41.152 72.1992 36.8138 80.0885 35.1873L79.4827 32.2491C70.8627 34.0262 64.5566 38.7644 61.2092 42.8095L63.5205 44.7221ZM80.0885 35.1873C82.1618 34.7599 84.5139 34.415 86.5718 34.596C88.6348 34.7773 90.091 35.4506 90.8651 36.7535L93.4442 35.2211C91.9601 32.7232 89.3383 31.8276 86.8346 31.6075C84.3258 31.3869 81.6225 31.808 79.4827 32.2491L80.0885 35.1873ZM90.8651 36.7535C91.4089 37.6686 91.4806 38.1732 91.4116 38.6591C91.3224 39.2865 90.977 40.0661 90.2042 41.5252L92.8552 42.9294C93.5847 41.5521 94.2066 40.3137 94.3817 39.0812C94.577 37.7072 94.2101 36.5101 93.4442 35.2211L90.8651 36.7535ZM90.2042 41.5252C89.4839 42.8849 87.8475 44.0711 85.4213 44.9483C83.0368 45.8104 80.1183 46.2888 77.202 46.4011L77.3175 49.3989C80.4517 49.2782 83.6916 48.7638 86.4413 47.7696C89.1492 46.7905 91.6225 45.2569 92.8552 42.9294L90.2042 41.5252ZM77.202 46.4011C73.3437 46.5497 71.35 45.4226 67.8064 43.9606L66.6622 46.7339C69.9933 48.1082 72.663 49.5781 77.3175 49.3989L77.202 46.4011ZM65.807 44.886C64.6309 48.5255 63.929 52.206 64.1626 55.5217C64.3984 58.8686 65.6001 61.9299 68.2991 64.1014L70.1797 61.7639C68.2957 60.2482 67.3491 58.0622 67.1552 55.3109C66.9592 52.5284 67.5463 49.2599 68.6617 45.8085L65.807 44.886ZM68.4339 64.198C73.0786 67.1546 77.7626 65.9535 81.7401 64.6407L80.7998 61.7919C76.8598 63.0923 73.4206 63.8161 70.0449 61.6673L68.4339 64.198ZM81.7401 64.6407C85.8449 63.2858 89.6426 60.7556 92.3729 58.6184C93.7481 57.542 94.8744 56.5478 95.659 55.8208C96.0516 55.4569 96.3596 55.1592 96.5713 54.9503C96.6772 54.8459 96.7591 54.7637 96.8156 54.7065C96.8438 54.6778 96.8657 54.6555 96.881 54.6397C96.8887 54.6319 96.8947 54.6256 96.8991 54.6211C96.9013 54.6189 96.9031 54.617 96.9044 54.6156C96.9051 54.6149 96.9057 54.6143 96.9061 54.6138C96.9064 54.6136 96.9066 54.6133 96.9068 54.6132C96.907 54.6129 96.9072 54.6127 95.8263 53.5727C94.7454 52.5327 94.7456 52.5325 94.7457 52.5323C94.7457 52.5323 94.7458 52.5322 94.7459 52.5322C94.7459 52.5321 94.7459 52.5322 94.7457 52.5323C94.7454 52.5326 94.7447 52.5334 94.7436 52.5345C94.7414 52.5368 94.7375 52.5408 94.732 52.5465C94.7211 52.5577 94.7037 52.5755 94.6801 52.5994C94.6328 52.6473 94.5606 52.7199 94.4648 52.8144C94.2732 53.0033 93.9878 53.2794 93.6199 53.6203C92.8836 54.3026 91.821 55.2407 90.5238 56.256C87.9094 58.3025 84.4289 60.594 80.7998 61.7919L81.7401 64.6407ZM97.0148 54.4878L113.394 33.2151L111.017 31.3849L94.6378 52.6576L97.0148 54.4878ZM112.206 32.3C111.017 31.3849 111.017 31.385 111.017 31.3852C111.017 31.3853 111.017 31.3855 111.016 31.3857C111.016 31.3862 111.016 31.3869 111.015 31.3877C111.014 31.3895 111.012 31.392 111.009 31.3954C111.004 31.4021 110.996 31.412 110.986 31.425C110.966 31.4511 110.937 31.4897 110.898 31.5403C110.82 31.6415 110.706 31.7909 110.559 31.9843C110.265 32.3712 109.838 32.9345 109.307 33.6421C108.244 35.057 106.765 37.0499 105.093 39.3633C101.756 43.982 97.6307 49.9092 94.5394 55.0711L97.1132 56.6124C100.137 51.5635 104.201 45.7198 107.525 41.1203C109.184 38.8247 110.652 36.8467 111.706 35.443C112.233 34.7412 112.655 34.1833 112.946 33.8012C113.092 33.6102 113.204 33.4632 113.28 33.3642C113.318 33.3146 113.346 33.2771 113.366 33.2521C113.375 33.2396 113.382 33.2303 113.387 33.2241C113.39 33.221 113.391 33.2187 113.392 33.2172C113.393 33.2164 113.393 33.2159 113.394 33.2156C113.394 33.2154 113.394 33.2153 113.394 33.2152C113.394 33.2151 113.394 33.2151 112.206 32.3ZM94.4183 55.3247C93.5803 57.6066 93.0866 59.6907 93.4995 61.4083C93.7211 62.3306 94.1962 63.1211 94.9349 63.7384C95.6483 64.3344 96.539 64.7123 97.5231 64.956L98.2439 62.0439C97.532 61.8676 97.1092 61.6457 96.8584 61.4362C96.6331 61.2479 96.4933 61.0273 96.4164 60.7072C96.232 59.9402 96.4058 58.6151 97.2344 56.3588L94.4183 55.3247ZM97.5231 64.956C98.9329 65.305 100.651 65.2455 102.068 65.0798C103.493 64.9132 104.842 64.6105 105.571 64.3373L104.518 61.528C104.102 61.6841 103.016 61.9486 101.719 62.1001C100.415 62.2526 99.1256 62.2621 98.2439 62.0439L97.5231 64.956ZM105.571 64.3373C111.024 62.2943 115.861 59.3873 119.322 57.0067C121.056 55.8136 122.454 54.746 123.422 53.9741C123.906 53.588 124.282 53.2755 124.54 53.0576C124.669 52.9487 124.768 52.8634 124.836 52.8045C124.87 52.775 124.897 52.752 124.915 52.736C124.924 52.728 124.931 52.7217 124.936 52.7172C124.939 52.7149 124.941 52.7131 124.942 52.7117C124.943 52.7111 124.944 52.7105 124.944 52.71C124.945 52.7098 124.945 52.7095 124.945 52.7094C124.945 52.7092 124.945 52.709 123.95 51.5872C122.954 50.4655 122.954 50.4653 122.954 50.4652C122.954 50.4652 122.954 50.4651 122.954 50.4651C122.954 50.4651 122.954 50.4652 122.954 50.4654C122.953 50.4658 122.952 50.4667 122.951 50.468C122.948 50.4706 122.943 50.4749 122.936 50.481C122.922 50.4931 122.901 50.5121 122.871 50.5376C122.812 50.5886 122.723 50.6656 122.604 50.7661C122.366 50.9671 122.011 51.2617 121.551 51.629C120.629 52.3639 119.288 53.3881 117.621 54.535C114.279 56.8344 109.664 59.6001 104.518 61.528L105.571 64.3373ZM125.055 52.6017L127.919 49.4817L125.709 47.4528L122.845 50.5728L125.055 52.6017ZM126.814 48.4672C127.618 49.7337 127.618 49.7335 127.618 49.7333C127.619 49.7332 127.619 49.7329 127.619 49.7327C127.62 49.7321 127.622 49.7313 127.623 49.7304C127.626 49.7284 127.631 49.7256 127.636 49.7219C127.648 49.7146 127.665 49.7038 127.687 49.6897C127.731 49.6614 127.796 49.6198 127.881 49.5651C128.05 49.4558 128.299 49.2945 128.618 49.0847C129.257 48.6653 130.18 48.0519 131.321 47.2729C133.602 45.7152 136.756 43.4931 140.254 40.833C147.223 35.5327 155.657 28.4183 161.222 21.3122L158.86 19.4625C153.541 26.2545 145.361 33.1801 138.438 38.4451C134.989 41.0677 131.878 43.2597 129.629 44.7955C128.505 45.5632 127.598 46.1663 126.972 46.5767C126.66 46.7819 126.418 46.9388 126.255 47.044C126.173 47.0966 126.111 47.1363 126.07 47.1626C126.05 47.1757 126.034 47.1855 126.024 47.1919C126.019 47.1951 126.015 47.1975 126.013 47.1989C126.012 47.1997 126.011 47.2002 126.011 47.2005C126.01 47.2007 126.01 47.2008 126.01 47.2008C126.01 47.2009 126.01 47.2008 126.814 48.4672ZM161.181 21.3625C162.236 20.1291 163.653 18.052 164.913 15.7552C166.167 13.4682 167.34 10.8322 167.813 8.488L164.873 7.89406C164.487 9.80437 163.479 12.132 162.283 14.3123C161.092 16.4827 159.788 18.3765 158.901 19.4122L161.181 21.3625ZM167.813 8.488C168.365 5.75427 166.576 3.46378 164.332 2.54775L163.198 5.32525C164.476 5.84705 165.068 6.92848 164.873 7.89406L167.813 8.488ZM164.332 2.54775C163.116 2.05152 161.81 2.16318 160.627 2.50548C159.436 2.85027 158.219 3.47091 157.062 4.1976C154.744 5.65243 152.423 7.68547 150.648 9.37332L152.716 11.5469C154.444 9.90301 156.594 8.03316 158.656 6.73857C159.689 6.09056 160.64 5.62486 161.461 5.38726C162.291 5.14717 162.843 5.18038 163.198 5.32525L164.332 2.54775ZM150.648 9.37332C144.514 15.2085 136.676 27.311 129.547 38.888L132.101 40.4611C139.295 28.78 146.924 17.0572 152.716 11.5469L150.648 9.37332ZM129.495 38.9787C127.551 42.691 125.051 46.9553 123.263 50.6504C122.356 52.5252 121.582 54.3513 121.106 56.0143C120.64 57.6445 120.405 59.3027 120.778 60.7534L123.684 60.0065C123.51 59.3299 123.575 58.2936 123.991 56.8392C124.397 55.4177 125.087 53.7693 125.964 51.9568C127.744 48.2773 130.087 44.3162 132.153 40.3704L129.495 38.9787ZM120.778 60.7534C121.249 62.584 122.278 63.8581 123.581 64.6696C124.844 65.4558 126.285 65.7625 127.575 65.8476L127.772 62.8541C126.775 62.7882 125.868 62.5595 125.167 62.1231C124.507 61.7119 123.959 61.0761 123.684 60.0065L120.778 60.7534ZM127.575 65.8476C128.88 65.9338 130.598 65.677 132.467 65.2235C134.368 64.7621 136.543 64.0672 138.809 63.1987C143.332 61.465 148.316 59.0018 152.305 56.2215L150.59 53.7602C146.846 56.369 142.091 58.7276 137.735 60.3975C135.561 61.2308 133.51 61.8832 131.759 62.3081C129.976 62.741 128.615 62.9097 127.772 62.8541L127.575 65.8476ZM152.305 56.2215C153.72 55.2359 155.228 54.1693 156.381 53.35C156.958 52.9401 157.447 52.5917 157.791 52.3457C157.964 52.2227 158.1 52.1253 158.193 52.0586C158.24 52.0252 158.276 51.9995 158.3 51.9822C158.312 51.9735 158.321 51.9669 158.327 51.9624C158.33 51.9602 158.333 51.9585 158.334 51.9574C158.335 51.9568 158.336 51.9564 158.336 51.9561C158.336 51.9559 158.337 51.9558 158.337 51.9558C158.337 51.9557 158.337 51.9557 158.337 51.9557C158.337 51.9556 158.337 51.9556 157.463 50.7363C156.59 49.517 156.59 49.517 156.59 49.517C156.589 49.5171 156.589 49.5171 156.589 49.5171C156.589 49.5172 156.589 49.5173 156.589 49.5174C156.589 49.5177 156.588 49.5181 156.587 49.5186C156.586 49.5197 156.584 49.5213 156.581 49.5235C156.574 49.5278 156.565 49.5343 156.553 49.5429C156.529 49.56 156.494 49.5855 156.448 49.6186C156.355 49.6848 156.219 49.7817 156.048 49.9042C155.705 50.1491 155.218 50.4961 154.644 50.9044C153.494 51.7214 151.994 52.782 150.59 53.7602L152.305 56.2215ZM158.792 51.4326L159.981 49.1635L157.324 47.771L156.135 50.0401L158.792 51.4326ZM158.652 48.4672C159.436 49.7461 159.436 49.746 159.437 49.7458C159.437 49.7456 159.437 49.7454 159.438 49.7451C159.439 49.7445 159.44 49.7437 159.442 49.7426C159.445 49.7405 159.45 49.7374 159.457 49.7334C159.47 49.7254 159.489 49.7137 159.514 49.6982C159.564 49.6674 159.637 49.6218 159.733 49.5621C159.925 49.4427 160.206 49.2667 160.566 49.0384C161.286 48.582 162.323 47.9166 163.594 47.0778C166.135 45.4008 169.616 43.0274 173.38 40.242C180.853 34.7101 189.625 27.4184 194.222 20.664L191.742 18.9761C187.459 25.269 179.066 32.3008 171.595 37.8307C167.885 40.5762 164.45 42.9183 161.941 44.574C160.688 45.4015 159.667 46.0568 158.96 46.5045C158.607 46.7283 158.333 46.9001 158.147 47.0156C158.055 47.0733 157.984 47.117 157.937 47.146C157.914 47.1604 157.896 47.1713 157.885 47.1784C157.879 47.1819 157.875 47.1845 157.872 47.1862C157.871 47.187 157.87 47.1876 157.869 47.188C157.869 47.1882 157.869 47.1883 157.868 47.1884C157.868 47.1884 157.868 47.1884 158.652 48.4672ZM194.222 20.664C196.31 17.596 197.866 14.9719 198.868 12.7899C199.843 10.6643 200.399 8.73693 200.199 7.15226L197.223 7.52798C197.312 8.23825 197.069 9.51553 196.141 11.5385C195.238 13.5051 193.785 15.9735 191.742 18.9761L194.222 20.664ZM200.199 7.15226C200.038 5.8774 199.685 4.75472 198.852 3.90361C198.035 3.06966 196.96 2.70874 195.882 2.47154L195.237 5.40145C196.165 5.60547 196.522 5.81182 196.708 6.0021C196.877 6.17523 197.097 6.53376 197.223 7.52798L200.199 7.15226ZM195.882 2.47154C194.591 2.18738 193.236 2.50102 192.011 3.00764C190.761 3.52439 189.471 4.3154 188.225 5.21719C185.73 7.02292 183.225 9.41158 181.304 11.4046L183.464 13.4866C185.334 11.546 187.698 9.30195 189.984 7.64745C191.129 6.81911 192.207 6.17313 193.157 5.77995C194.133 5.37664 194.81 5.30743 195.237 5.40145L195.882 2.47154ZM181.304 11.4046C180.957 11.764 179.865 13.1222 178.386 15.0519C176.875 17.0235 174.894 19.6785 172.732 22.7067C168.417 28.7506 163.345 36.3321 159.86 42.9462L162.514 44.3447C165.904 37.9115 170.883 30.4604 175.174 24.4498C177.315 21.4507 179.276 18.823 180.767 16.8769C182.291 14.8889 183.263 13.6944 183.464 13.4866L181.304 11.4046ZM159.86 42.9462C158.284 45.938 156.609 49.0342 155.337 51.7999C154.096 54.5 153.099 57.1672 153.099 59.2454H156.099C156.099 57.9035 156.805 55.7888 158.063 53.053C159.291 50.3827 160.91 47.3891 162.514 44.3447L159.86 42.9462ZM153.099 59.2454C153.099 60.6263 153.45 62.1435 154.533 63.4107C155.62 64.6831 157.285 65.5164 159.545 65.836L159.965 62.8656C158.214 62.618 157.301 62.0331 156.813 61.4618C156.321 60.8855 156.099 60.1335 156.099 59.2454H153.099ZM159.545 65.836C160.589 65.9838 161.972 65.8711 163.498 65.5941C165.058 65.3112 166.885 64.8342 168.871 64.1741C172.841 62.8539 177.515 60.7767 182.03 57.9661L180.445 55.4192C176.143 58.0968 171.686 60.0765 167.924 61.3273C166.044 61.9526 164.355 62.3896 162.963 62.6423C161.537 62.901 160.531 62.9457 159.965 62.8656L159.545 65.836ZM182.03 57.9661C192.9 51.2005 194.966 48.0293 203.096 41.4046L201.2 39.079C192.717 45.9923 191.114 48.779 180.445 55.4192L182.03 57.9661ZM203.096 41.4046C204.867 39.9612 206.816 38.3884 208.46 37.0035C210.06 35.6556 211.513 34.37 212.194 33.5263L209.861 31.641C209.397 32.2155 208.19 33.308 206.527 34.7091C204.908 36.0732 202.99 37.6204 201.2 39.079L203.096 41.4046ZM212.194 33.5263C212.99 32.5418 213.438 31.3016 213.457 30.1446C213.474 29.0203 213.052 27.5903 211.639 26.9595L210.416 29.6988C210.293 29.644 210.465 29.606 210.457 30.0974C210.45 30.5561 210.253 31.1551 209.861 31.641L212.194 33.5263ZM211.639 26.9595C210.726 26.5516 209.804 26.444 208.885 26.7388C208.041 27.0098 207.37 27.5709 206.821 28.1142L208.932 30.2459C209.384 29.7984 209.644 29.6461 209.802 29.5953C209.886 29.5684 210.04 29.5307 210.416 29.6988L211.639 26.9595ZM206.821 28.1142C206.28 28.6501 205.931 29.4415 205.694 30.1009C205.437 30.8185 205.228 31.6362 205.065 32.4208C204.751 33.9357 204.558 35.5903 204.609 36.3702L207.603 36.1717C207.579 35.817 207.699 34.4935 208.002 33.0301C208.148 32.3257 208.324 31.6543 208.518 31.1133C208.615 30.8433 208.709 30.6276 208.794 30.4666C208.885 30.2957 208.937 30.2407 208.932 30.2459L206.821 28.1142ZM204.609 36.3702C204.958 41.6232 205.517 45.971 205.517 49.3181H208.517C208.517 45.8581 207.932 41.1295 207.603 36.1717L204.609 36.3702ZM205.517 49.3181C205.517 54.4185 205.509 57.1775 203.071 61.6471L205.704 63.0837C208.526 57.9097 208.517 54.4946 208.517 49.3181H205.517ZM203.071 61.6471C202.729 62.2723 201.981 62.7488 200.967 63.0593C199.988 63.3593 199.033 63.4181 198.711 63.4181V66.4181C199.248 66.4181 200.512 66.3363 201.846 65.9278C203.146 65.5298 204.806 64.73 205.704 63.0837L203.071 61.6471ZM198.711 63.4181C198.718 63.4181 198.681 63.418 198.599 63.4024C198.523 63.3876 198.424 63.3623 198.312 63.3226C198.086 63.2424 197.836 63.1149 197.608 62.9322C197.194 62.6006 196.773 62.0308 196.773 60.9472H193.773C193.773 62.9836 194.641 64.3992 195.732 65.273C196.745 66.0853 197.934 66.4181 198.711 66.4181V63.4181ZM196.773 60.9472C196.773 60.2103 197.096 59.218 197.837 58.1281C198.567 57.0563 199.64 55.9859 200.969 55.1082L199.317 52.6045C197.684 53.6823 196.322 55.0228 195.357 56.4402C194.405 57.8396 193.773 59.415 193.773 60.9472H196.773ZM200.969 55.1082C204.226 52.958 208.632 51.3106 213.528 49.5996L212.538 46.7676C207.694 48.4603 202.934 50.2164 199.317 52.6045L200.969 55.1082ZM213.528 49.5996C218.144 47.9864 220.707 47.5826 225.601 47.6977L225.672 44.6986C220.417 44.5749 217.495 45.0353 212.538 46.7676L213.528 49.5996Z" fill="#2CDD9B"/>
</svg>
