<svg width="641" height="184" viewBox="0 0 641 184" fill="none"
  xmlns="http://www.w3.org/2000/svg">
  <path d="M94.1667 26.5C94.1667 33.8638 100.136 39.8333 107.5 39.8333C114.864 39.8333 120.833 33.8638 120.833 26.5C120.833 19.1362 114.864 13.1667 107.5 13.1667C100.136 13.1667 94.1667 19.1362 94.1667 26.5ZM21.0288 165L19.039 163.487L21.0288 165ZM6.0288 176.5L5.48648 174.06L6.0288 176.5ZM3.52883 169L1.1654 168.185L3.52883 169ZM67.0288 82L68.699 83.8602L67.0288 82ZM118.529 96.5L120.392 98.167L118.529 96.5ZM86.0288 113.5L86.3823 115.975L86.0288 113.5ZM60.0288 106L61.5905 104.048L58.2049 107.71L60.0288 106ZM90.0288 117L90.1675 114.504L90.0288 117ZM137.529 102.5L136.187 100.391L137.529 102.5ZM166.029 73.5L168.109 74.8868L166.029 73.5ZM173.493 64.5L174.568 62.2428L173.493 64.5ZM175.029 97L177.173 98.2862L175.029 97ZM170.529 117.5L172.212 115.652L172.212 115.652L170.529 117.5ZM187.529 118L188.407 120.341L187.529 118ZM215.029 104.5L217.469 103.958L216.736 100.66L213.797 102.325L215.029 104.5ZM229.529 117.5L229.39 119.996L229.529 117.5ZM281.529 72.5L279.041 72.2512L281.529 72.5ZM264.529 60L264.728 57.508L264.529 60ZM234.029 72L232.576 69.9657L232.576 69.9657L234.029 72ZM266.029 89.5L263.607 90.1193L266.029 89.5ZM275.029 100L274.022 102.288L275.029 100ZM309.529 92.5L311.271 94.2925L311.522 94.0486L311.697 93.7453L309.529 92.5ZM327.529 60.5L329.738 61.6697C330.382 60.4538 329.922 58.9462 328.71 58.2964C327.497 57.6466 325.987 58.0988 325.331 59.3083L327.529 60.5ZM258.529 170.5L260.498 172.04L258.529 170.5ZM238.529 178L240.502 176.465L238.529 178ZM247.029 158.5L245.446 156.565L245.378 156.621L245.314 156.681L247.029 158.5ZM339.529 96.5L341.102 98.4431L339.529 96.5ZM345.529 77.5L346.538 75.2127L344.271 79.6607L345.529 77.5ZM386.029 86L386.747 88.3946L386.747 88.3946L386.029 86ZM403.029 70L400.543 69.7383L403.029 70ZM373.529 62.5L374.457 64.8212L373.529 62.5ZM341.529 109.5L339.202 110.414L339.202 110.414L341.529 109.5ZM357.029 117.5L356.965 119.999L357.029 117.5ZM416.529 92.5L418.427 94.127L416.529 92.5ZM453.529 65.5L452.986 63.0595L453.529 65.5ZM464.293 75.382C463.675 76.6169 464.176 78.1186 465.411 78.7361C466.646 79.3535 468.147 78.853 468.765 77.618L464.293 75.382ZM458.529 64.8518L458.611 67.3505L458.529 64.8518ZM414.529 99.5L416.998 99.8897L414.529 99.5ZM415.529 111.5L413.494 112.953L415.529 111.5ZM448.529 115.5L448.968 117.961L448.529 115.5ZM528.029 67L525.753 65.9655L525.745 65.9836L525.737 66.0018L528.029 67ZM510.029 116.5L508.964 118.762L510.029 116.5ZM561.029 97L559.467 95.0478L559.467 95.0478L561.029 97ZM593.029 69.5L594.623 71.426L593.029 69.5ZM603.029 55L605.265 53.8819L603.029 55ZM580.529 118.5L579.802 120.892L580.529 118.5ZM613.696 85.5C613.696 92.8638 619.665 98.8333 627.029 98.8333C634.393 98.8333 640.363 92.8638 640.363 85.5C640.363 78.1362 634.393 72.1667 627.029 72.1667C619.665 72.1667 613.696 78.1362 613.696 85.5ZM262.529 101L260.732 99.2613L262.529 101ZM281.193 69.5L283.673 69.1855L281.193 69.5ZM350.529 79.7059L352.297 81.4737L354.335 79.4354L352.029 77.7059L350.529 79.7059ZM351.029 79.5L349.227 77.7672L349.216 77.7786L349.205 77.7901L351.029 79.5ZM362.529 85L363.118 82.5704L363.118 82.5704L362.529 85ZM397.029 80.5L398.539 82.4923L397.029 80.5ZM479.529 102.5L480.862 104.615L480.862 104.615L479.529 102.5ZM532.029 60V62.5H533.574L534.265 61.118L532.029 60ZM506.029 59L506.053 56.5001C504.696 56.4869 503.577 57.5584 503.53 58.9144C503.484 60.2705 504.527 61.416 505.882 61.4957L506.029 59ZM557.529 59.5L557.713 61.9932C559.05 61.8942 560.071 60.7591 560.028 59.4197C559.984 58.0804 558.893 57.0131 557.553 57.0001L557.529 59.5ZM530.529 61.5L530.344 59.0068L528.866 59.1163L528.253 60.4655L530.529 61.5ZM599.029 91.5L599.819 93.8717L599.029 91.5ZM593.529 71L591.031 71.1135L591.036 71.206L591.047 71.2979L593.529 71ZM105.321 25.2743C100.801 33.3093 45.9149 128.15 19.039 163.487L23.0187 166.513C50.1427 130.85 105.199 35.6907 109.679 27.7257L105.321 25.2743ZM19.039 163.487C17.6566 165.304 15.1898 167.786 12.5006 169.94C9.72984 172.158 7.13318 173.694 5.48648 174.06L6.57112 178.94C9.42444 178.306 12.7904 176.113 15.6259 173.843C18.543 171.507 21.3262 168.739 23.0187 166.513L19.039 163.487ZM5.48648 174.06C5.43409 174.071 5.66723 174.055 5.84663 174.221C5.89915 174.269 5.75233 174.149 5.62905 173.61C5.38435 172.539 5.496 170.964 5.89227 169.815L1.1654 168.185C0.502261 170.108 0.277683 172.636 0.754711 174.723C0.992294 175.763 1.47083 176.986 2.45504 177.894C3.56613 178.92 5.0373 179.281 6.57112 178.94L5.48648 174.06ZM5.89227 169.815C10.7449 155.742 23.2168 137.12 36.2477 120.43C49.2431 103.786 62.5162 89.4118 68.699 83.8602L65.3585 80.1398C58.8704 85.9656 45.3935 100.592 32.3066 117.353C19.2553 134.069 6.31272 153.258 1.1654 168.185L5.89227 169.815ZM68.699 83.8602C76.2038 77.1215 82.9121 71.3842 89.4439 67.3222C95.9481 63.2774 102.114 61 108.529 61V56C100.864 56 93.7793 58.7382 86.8035 63.0763C79.8554 67.3971 72.8537 73.4098 65.3585 80.1398L68.699 83.8602ZM108.529 61C116.842 61 123.012 62.3556 126.887 68.7899L131.17 66.2101C125.854 57.3839 117.216 56 108.529 56V61ZM126.887 68.7899C128.574 71.59 128.402 75.5076 126.383 80.3341C124.393 85.0929 120.811 90.1995 116.666 94.833L120.392 98.167C124.746 93.3005 128.713 87.7222 130.996 82.2636C133.251 76.8726 134.08 71.0403 131.17 66.2101L126.887 68.7899ZM116.666 94.833C113.695 98.1537 108.484 101.864 102.615 104.949C96.7561 108.029 90.5393 110.33 85.6752 111.025L86.3823 115.975C92.0182 115.17 98.8014 112.603 104.942 109.375C111.073 106.151 116.863 102.111 120.392 98.167L116.666 94.833ZM85.6752 111.025C80.4905 111.766 76.8928 111.836 73.4593 110.905C70.0156 109.971 66.4801 107.96 61.5905 104.048L58.467 107.952C63.5774 112.04 67.7438 114.536 72.151 115.731C76.5685 116.928 80.9708 116.748 86.3823 115.975L85.6752 111.025ZM58.2049 107.71C62.4012 112.186 68.6543 115 74.5039 116.75C80.4067 118.515 86.2287 119.293 89.8901 119.496L90.1675 114.504C86.8396 114.319 81.4116 113.597 75.9367 111.959C70.4086 110.306 65.1563 107.814 61.8526 104.29L58.2049 107.71ZM89.8901 119.496C108.591 120.535 122.11 115.275 138.871 104.609L136.187 100.391C119.947 110.725 107.466 115.465 90.1675 114.504L89.8901 119.496ZM138.871 104.609C154.551 94.6312 163.856 81.2656 168.109 74.8868L163.949 72.1132C159.792 78.3477 150.958 90.9908 136.187 100.391L138.871 104.609ZM168.109 74.8868C169.95 72.1257 173.164 67.9349 175.116 64.2269C176.103 62.3527 176.952 60.282 177.1 58.2862C177.26 56.1273 176.583 53.936 174.462 52.4519L171.595 56.5481C171.975 56.814 172.173 57.1227 172.114 57.9169C172.043 58.8742 171.58 60.2098 170.691 61.8981C168.893 65.3151 166.108 68.8743 163.949 72.1132L168.109 74.8868ZM174.462 52.4519C172.536 51.1032 170.224 51.4755 168.673 52.6846C167.093 53.9158 166.222 55.9908 166.512 58.3101L171.474 57.6899C171.386 56.9913 171.654 56.7004 171.746 56.6282C171.807 56.5812 171.825 56.5934 171.779 56.5966C171.717 56.601 171.64 56.5797 171.595 56.5481L174.462 52.4519ZM166.512 58.3101C166.766 60.3389 167.124 62.1287 168.165 63.6078C169.225 65.1126 170.759 65.9669 172.418 66.7572L174.568 62.2428C172.972 61.483 172.506 61.0873 172.254 60.7295C171.984 60.3462 171.72 59.6611 171.474 57.6899L166.512 58.3101ZM172.418 66.7572C178.085 69.4557 182.281 69.7985 185.358 69.9622C188.609 70.1351 189.351 70.2178 190.131 71.127L193.927 67.873C191.485 65.0241 188.209 65.1068 185.623 64.9692C182.862 64.8224 179.401 64.5443 174.568 62.2428L172.418 66.7572ZM190.131 71.127C190.146 71.1454 190.129 71.129 190.11 71.0804C190.092 71.0312 190.09 70.9972 190.09 71C190.091 71.0333 190.078 71.2584 189.844 71.7673C189.353 72.834 188.309 74.2955 186.619 76.4631C183.345 80.6642 178.232 86.8026 172.885 95.7138L177.173 98.2862C182.326 89.6974 187.212 83.8358 190.563 79.5369C192.186 77.4545 193.611 75.541 194.386 73.8577C194.784 72.9916 195.103 71.9979 195.09 70.9375C195.076 69.7971 194.678 68.7497 193.927 67.873L190.131 71.127ZM172.885 95.7138C170.63 99.4723 168.236 103.801 167.013 107.794C165.835 111.642 165.442 116.249 168.846 119.348L172.212 115.652C171.116 114.653 170.722 112.76 171.794 109.258C172.822 105.9 174.928 102.028 177.173 98.2862L172.885 95.7138ZM168.846 119.348C171.958 122.182 176.033 122.685 179.497 122.433C182.995 122.178 186.311 121.127 188.407 120.341L186.651 115.659C184.747 116.373 181.944 117.241 179.134 117.446C176.289 117.653 173.864 117.156 172.212 115.652L168.846 119.348ZM188.407 120.341C193.972 118.254 200.959 114.819 206.492 111.946C209.273 110.502 211.712 109.186 213.456 108.231C214.328 107.753 215.027 107.366 215.509 107.097C215.75 106.962 215.937 106.858 216.064 106.786C216.128 106.751 216.176 106.723 216.209 106.705C216.226 106.695 216.238 106.688 216.247 106.683C216.251 106.681 216.254 106.679 216.257 106.678C216.258 106.677 216.259 106.676 216.259 106.676C216.26 106.676 216.26 106.676 216.26 106.676C216.26 106.676 216.261 106.675 215.029 104.5C213.797 102.325 213.797 102.325 213.797 102.325C213.797 102.325 213.797 102.325 213.797 102.325C213.796 102.325 213.796 102.325 213.795 102.326C213.793 102.327 213.79 102.328 213.786 102.33C213.779 102.335 213.767 102.341 213.752 102.35C213.721 102.367 213.675 102.393 213.614 102.428C213.491 102.497 213.31 102.599 213.074 102.73C212.602 102.993 211.914 103.375 211.054 103.845C209.334 104.787 206.929 106.085 204.188 107.508C198.679 110.37 191.916 113.685 186.651 115.659L188.407 120.341ZM212.588 105.042C213.626 109.71 215.146 113.447 217.964 116.03C220.822 118.65 224.621 119.731 229.39 119.996L229.667 115.004C225.437 114.769 222.985 113.85 221.343 112.345C219.662 110.803 218.432 108.29 217.469 103.958L212.588 105.042ZM229.39 119.996C236.439 120.388 243.571 117.479 249.385 114.115C255.254 110.72 260.104 106.67 262.672 104.358L259.327 100.642C256.896 102.83 252.335 106.632 246.881 109.787C241.372 112.974 235.269 115.315 229.667 115.004L229.39 119.996ZM284.016 72.7488C284.726 65.6491 277.793 58.5532 264.728 57.508L264.329 62.492C276.265 63.4468 279.331 69.3509 279.041 72.2512L284.016 72.7488ZM264.728 57.508C251.297 56.4335 239.421 65.0759 232.576 69.9657L235.482 74.0343C242.636 68.9241 253.018 61.5871 264.329 62.492L264.728 57.508ZM232.576 69.9657C226.62 74.2194 221.525 79.5692 217.902 85.1317C214.302 90.6577 212.029 96.5938 212.029 102H217.029C217.029 97.9062 218.796 92.9205 222.091 87.8607C225.363 82.8374 230.018 77.9371 235.482 74.0343L232.576 69.9657ZM274.922 65.0746C273.769 65.3631 272.567 65.5821 271.542 66.0874C270.417 66.6426 269.487 67.5059 268.261 68.7322L271.797 72.2678C273.07 70.9941 273.467 70.7133 273.754 70.5716C274.143 70.3799 274.441 70.3488 276.135 69.9254L274.922 65.0746ZM268.261 68.7322C262.516 74.4773 261.759 82.8938 263.607 90.1193L268.451 88.8807C266.863 82.6707 267.736 76.3287 271.797 72.2678L268.261 68.7322ZM263.607 90.1193C264.375 93.1231 265.538 95.5874 267.314 97.624C269.085 99.6544 271.331 101.104 274.022 102.288L276.036 97.7117C273.783 96.7205 272.226 95.6489 271.082 94.3372C269.943 93.0318 269.078 91.3335 268.451 88.8807L263.607 90.1193ZM274.022 102.288C287.671 108.294 301.575 103.719 311.271 94.2925L307.786 90.7075C299.177 99.0775 287.387 102.706 276.036 97.7117L274.022 102.288ZM311.697 93.7453C318.452 81.9866 322.957 73.9761 325.777 68.9016C327.186 66.3643 328.174 64.5607 328.811 63.3893C329.13 62.8037 329.36 62.376 329.512 62.0936C329.588 61.9524 329.644 61.8476 329.681 61.7775C329.7 61.7424 329.714 61.716 329.723 61.6981C329.728 61.6892 329.732 61.6824 329.734 61.6776C329.735 61.6753 329.736 61.6734 329.737 61.6721C329.737 61.6715 329.738 61.6709 329.738 61.6705C329.738 61.6703 329.738 61.6701 329.738 61.67C329.738 61.6699 329.738 61.6697 327.529 60.5C325.319 59.3303 325.319 59.3302 325.319 59.3302C325.319 59.3302 325.319 59.3302 325.319 59.3303C325.319 59.3304 325.319 59.3306 325.319 59.331C325.319 59.3318 325.318 59.3331 325.317 59.3349C325.315 59.3385 325.312 59.3442 325.308 59.3521C325.299 59.3678 325.287 59.392 325.269 59.4249C325.234 59.4908 325.18 59.5915 325.106 59.7286C324.959 60.0029 324.733 60.4229 324.418 61.0013C323.789 62.1581 322.809 63.9482 321.406 66.4734C318.6 71.5239 314.106 79.5134 307.361 91.2547L311.697 93.7453ZM327.529 60.5C325.331 59.3083 325.331 59.3085 325.331 59.3089C325.33 59.3094 325.33 59.3101 325.33 59.3111C325.328 59.3131 325.327 59.3162 325.325 59.3204C325.32 59.3287 325.313 59.3413 325.304 59.3581C325.286 59.3918 325.258 59.4424 325.222 59.5096C325.149 59.6439 325.039 59.8444 324.895 60.1079C324.607 60.6349 324.18 61.414 323.626 62.42C322.516 64.432 320.897 67.3516 318.858 70.9777C314.779 78.2304 309.023 88.3066 302.317 99.5984C288.887 122.21 271.705 149.593 256.559 168.96L260.498 172.04C275.853 152.407 293.17 124.79 306.616 102.152C313.347 90.8184 319.122 80.7071 323.216 73.4286C325.262 69.789 326.889 66.8571 328.004 64.8339C328.562 63.8224 328.992 63.038 329.283 62.5059C329.428 62.2399 329.539 62.0369 329.613 61.9001C329.65 61.8318 329.679 61.78 329.697 61.7451C329.707 61.7276 329.714 61.7144 329.719 61.7055C329.721 61.7011 329.723 61.6977 329.724 61.6954C329.725 61.6942 329.726 61.6933 329.726 61.6927C329.726 61.6921 329.726 61.6917 327.529 60.5ZM256.559 168.96C254.144 172.048 250.686 175.266 247.397 176.924C245.757 177.75 244.355 178.089 243.25 178.015C242.255 177.949 241.342 177.545 240.502 176.465L236.555 179.535C238.262 181.729 240.484 182.842 242.917 183.004C245.241 183.159 247.563 182.439 249.647 181.389C253.807 179.293 257.803 175.486 260.498 172.04L256.559 168.96ZM240.502 176.465C239.698 175.431 239.556 173.39 241.203 170.027C242.759 166.851 245.544 163.336 248.744 160.319L245.314 156.681C241.825 159.97 238.61 163.956 236.713 167.827C234.907 171.514 233.86 176.069 236.555 179.535L240.502 176.465ZM248.612 160.435C264.952 147.065 280.057 138.023 295.117 129.088C310.164 120.159 325.191 111.324 341.102 98.4431L337.956 94.5569C322.367 107.176 307.643 115.841 292.566 124.787C277.5 133.727 262.105 142.935 245.446 156.565L248.612 160.435ZM405.515 70.2617C406.051 65.1743 402.031 60.4559 395.907 58.1592L394.151 62.8408C399.19 64.7303 400.74 67.8638 400.543 69.7383L405.515 70.2617ZM395.907 58.1592C386.961 54.8045 380.503 57.0176 372.6 60.1788L374.457 64.8212C382.213 61.7189 387.097 60.1955 394.151 62.8408L395.907 58.1592ZM339.202 110.414C341.926 117.348 348.622 119.785 356.965 119.999L357.093 115.001C349.409 114.804 345.453 112.652 343.856 108.586L339.202 110.414ZM356.965 119.999C377.199 120.518 389.727 113.194 400.726 107.195L398.332 102.805C387.331 108.806 375.858 115.482 357.093 115.001L356.965 119.999ZM400.726 107.195C404.652 105.053 408.639 102.284 411.819 99.8458C414.936 97.4557 417.489 95.2212 418.427 94.127L414.631 90.873C414.069 91.5288 411.897 93.4851 408.776 95.878C405.719 98.2225 401.956 100.829 398.332 102.805L400.726 107.195ZM454.071 67.9405C460.466 66.5193 463.235 67.9248 464.279 69.2053C465.374 70.5473 465.534 72.8996 464.293 75.382L468.765 77.618C470.524 74.1004 470.934 69.4527 468.153 66.0447C465.323 62.5752 460.091 61.4807 452.986 63.0595L454.071 67.9405ZM468.765 77.618C470.479 74.19 470.978 70.2577 469.135 67.0666C467.232 63.7724 463.387 62.1908 458.447 62.3532L458.611 67.3505C462.513 67.2222 464.168 68.4646 464.805 69.5672C465.501 70.7728 465.579 72.81 464.293 75.382L468.765 77.618ZM458.447 62.3532C449.958 62.6322 439.056 67.827 430.117 74.6472C425.598 78.0956 421.456 82.0508 418.267 86.1818C415.099 90.2867 412.752 94.719 412.059 99.1103L416.998 99.8897C417.511 96.6386 419.334 92.9823 422.225 89.2371C425.096 85.5181 428.904 81.8619 433.15 78.6223C441.742 72.0667 451.634 67.5798 458.611 67.3505L458.447 62.3532ZM412.059 99.1103C411.79 100.818 409.198 106.938 413.494 112.953L417.563 110.047C414.809 106.191 416.479 103.182 416.998 99.8897L412.059 99.1103ZM413.494 112.953C415.132 115.245 417.565 116.75 420.253 117.728C422.943 118.708 426.042 119.218 429.246 119.423C435.653 119.834 442.872 119.05 448.968 117.961L448.089 113.039C442.192 114.092 435.412 114.808 429.566 114.433C426.644 114.246 424.055 113.792 421.963 113.03C419.868 112.268 418.426 111.255 417.563 110.047L413.494 112.953ZM556.123 34.3657C563.165 23.5683 567.276 15.8979 569.242 10.8439C570.204 8.37142 570.76 6.26273 570.735 4.62585C570.722 3.80633 570.561 2.78107 569.907 1.90809C569.158 0.908315 568.064 0.5 567.029 0.5V5.5C566.744 5.5 566.244 5.35731 565.906 4.90637C565.663 4.58221 565.73 4.38898 565.735 4.70228C565.745 5.33102 565.492 6.69108 564.582 9.03107C562.804 13.6021 558.915 20.9317 551.935 31.6343L556.123 34.3657ZM525.737 66.0018C523.668 70.7517 520.866 75.8698 517.942 81.0272C515.044 86.1387 512.006 91.3203 509.584 96.0317C507.186 100.697 505.224 105.208 504.638 108.994C504.342 110.908 504.36 112.854 505.03 114.611C505.732 116.454 507.069 117.87 508.964 118.762L511.093 114.238C510.3 113.865 509.917 113.395 509.702 112.831C509.454 112.181 509.357 111.197 509.579 109.759C510.031 106.84 511.648 102.953 514.031 98.3175C516.39 93.7273 519.337 88.7031 522.291 83.4935C525.219 78.3297 528.138 73.0114 530.321 67.9982L525.737 66.0018ZM508.964 118.762C518.544 123.27 525.66 119.766 533.274 117.386L531.783 112.614C523.398 115.234 518.514 117.73 511.093 114.238L508.964 118.762ZM533.274 117.386C537.602 116.034 542.454 113.386 547.397 110.155C552.367 106.905 557.562 102.975 562.591 98.9522L559.467 95.0478C554.495 99.0251 549.44 102.845 544.661 105.97C539.853 109.114 535.455 111.466 531.783 112.614L533.274 117.386ZM562.591 98.9522C569.11 93.7371 573.524 89.8267 578.106 85.7353C582.678 81.6528 587.413 77.3926 594.623 71.426L591.435 67.574C584.145 73.6074 579.346 77.9247 574.776 82.0059C570.215 86.0783 565.88 89.9178 559.467 95.0478L562.591 98.9522ZM594.623 71.426C596.766 69.6523 600.286 67.1446 602.687 64.5388C605.082 61.9391 607.393 58.1386 605.265 53.8819L600.793 56.1181C601.426 57.3842 601.115 58.8653 599.01 61.1507C596.91 63.43 594.049 65.4109 591.435 67.574L594.623 71.426ZM605.265 53.8819C604.503 52.3589 602.964 50.8228 600.738 50.6918C598.466 50.5581 596.498 51.9428 594.995 54.0469L599.064 56.9531C600.061 55.5572 600.592 55.6919 600.445 55.6832C600.343 55.6772 600.554 55.6411 600.793 56.1181L605.265 53.8819ZM591.591 105.946C590.829 109.299 589.184 112.297 587.194 114.198C585.221 116.082 583.174 116.691 581.256 116.108L579.802 120.892C583.966 122.158 587.816 120.517 590.647 117.814C593.46 115.128 595.524 111.201 596.467 107.054L591.591 105.946ZM581.256 116.108C579.073 115.444 578.256 114.799 577.831 114.15C577.352 113.418 577.029 112.17 577.029 109.5H572.029C572.029 112.33 572.319 114.857 573.646 116.887C575.028 118.999 577.211 120.104 579.802 120.892L581.256 116.108ZM262.672 104.358C265.405 101.898 270.555 95.4334 274.996 89.1268C277.243 85.9352 279.37 82.6972 280.978 79.9148C281.781 78.5256 282.474 77.2157 282.99 76.0606C283.48 74.9659 283.912 73.7934 284.016 72.7488L279.041 72.2512C279.021 72.4566 278.874 73.0185 278.426 74.0195C278.005 74.9601 277.403 76.1072 276.649 77.4133C275.142 80.0215 273.105 83.1273 270.908 86.2482C266.459 92.5666 261.594 98.6016 259.327 100.642L262.672 104.358ZM212.029 102C212.029 106.39 213.765 110.269 216.162 113.242C218.542 116.194 221.687 118.399 224.768 119.383L226.289 114.62C224.249 113.968 221.895 112.387 220.055 110.104C218.232 107.843 217.029 105.039 217.029 102H212.029ZM224.768 119.383C228.044 120.429 234.079 120.206 241.029 117.887C248.106 115.525 256.423 110.903 264.325 102.739L260.732 99.2613C253.403 106.833 245.781 111.03 239.446 113.144C232.984 115.3 228.135 115.209 226.289 114.62L224.768 119.383ZM264.325 102.739C268.438 98.4894 273.671 93.4312 277.614 87.9498C281.561 82.4628 284.552 76.1107 283.673 69.1855L278.713 69.8145C279.356 74.8822 277.218 79.9369 273.555 85.0301C269.887 90.129 265.027 94.8244 260.732 99.2613L264.325 102.739ZM283.673 69.1855C283.513 67.9192 282.791 67.0039 282.062 66.4164C281.346 65.8405 280.508 65.476 279.74 65.247C278.235 64.798 276.416 64.7013 274.922 65.0746L276.135 69.9254C276.642 69.7987 277.542 69.809 278.312 70.0385C278.681 70.1488 278.871 70.2664 278.926 70.3111C278.967 70.3441 278.76 70.1878 278.713 69.8145L283.673 69.1855ZM341.102 98.4431C342.36 97.4245 343.344 96.054 344.173 94.6791C345.005 93.2987 345.799 91.7079 346.578 90.1808C348.189 87.0224 349.861 83.9094 352.297 81.4737L348.761 77.9382C345.697 81.0024 343.714 84.7918 342.124 87.9082C341.303 89.5184 340.608 90.9081 339.891 92.0975C339.171 93.2923 338.544 94.0808 337.956 94.5569L341.102 98.4431ZM352.029 77.7059C351.521 77.3253 351.093 77.0208 350.683 76.7926C350.2 76.5236 349.811 76.3975 349.468 76.2991C349.022 76.1712 348.392 76.0307 346.538 75.2127L344.52 79.7873C346.665 80.734 347.536 80.9465 348.09 81.1054C348.247 81.1504 348.233 81.1511 348.25 81.1607C348.34 81.2109 348.536 81.3365 349.029 81.7059L352.029 77.7059ZM372.6 60.1788C367.192 62.3422 361.303 66.8294 356.902 70.6019C354.668 72.5161 352.757 74.3006 351.402 75.607C350.725 76.2608 350.185 76.7964 349.813 77.1706C349.627 77.3577 349.482 77.5046 349.384 77.6058C349.334 77.6564 349.296 77.6956 349.27 77.7227C349.257 77.7363 349.246 77.7468 349.239 77.7543C349.236 77.758 349.233 77.761 349.231 77.7631C349.23 77.7642 349.229 77.7651 349.228 77.7658C349.228 77.7661 349.227 77.7665 349.227 77.7666C349.227 77.767 349.227 77.7672 351.029 79.5C352.831 81.2328 352.831 81.2329 352.831 81.2331C352.831 81.233 352.831 81.2331 352.831 81.233C352.831 81.2329 352.831 81.2326 352.831 81.2321C352.832 81.2311 352.834 81.2294 352.837 81.2268C352.841 81.2217 352.849 81.2136 352.86 81.2024C352.882 81.1801 352.915 81.1458 352.96 81.1003C353.049 81.0091 353.183 80.8727 353.358 80.6966C353.708 80.3442 354.223 79.8329 354.874 79.2055C356.176 77.9494 358.014 76.2339 360.156 74.3981C364.505 70.6706 369.866 66.6578 374.457 64.8212L372.6 60.1788ZM351.029 79.5C349.205 77.7901 349.204 77.7908 349.204 77.7914C349.203 77.7917 349.203 77.7925 349.202 77.7931C349.201 77.7943 349.2 77.7958 349.198 77.7975C349.195 77.801 349.191 77.8054 349.186 77.8108C349.176 77.8215 349.162 77.8362 349.145 77.8547C349.111 77.8917 349.064 77.9439 349.003 78.0109C348.883 78.1449 348.712 78.3379 348.499 78.5856C348.073 79.0807 347.48 79.7959 346.788 80.6958C345.41 82.4906 343.623 85.0456 342.01 88.0748C338.843 94.0199 336.042 102.371 339.202 110.414L343.856 108.586C341.516 102.629 343.464 95.9801 346.423 90.4252C347.872 87.7044 349.492 85.3844 350.754 83.7417C351.383 82.9229 351.918 82.2787 352.291 81.8441C352.478 81.627 352.624 81.4626 352.72 81.3553C352.768 81.3017 352.804 81.2624 352.827 81.238C352.838 81.2257 352.846 81.2172 352.85 81.2125C352.852 81.2102 352.854 81.2088 352.854 81.2083C352.854 81.2081 352.854 81.2081 352.854 81.2084C352.854 81.2085 352.854 81.2089 352.853 81.2089C352.853 81.2094 352.853 81.2099 351.029 79.5ZM345.529 77.5C344.271 79.6607 344.271 79.6608 344.272 79.661C344.272 79.6611 344.272 79.6613 344.272 79.6614C344.273 79.6617 344.274 79.6621 344.275 79.6626C344.276 79.6636 344.279 79.665 344.282 79.6667C344.287 79.6701 344.296 79.6749 344.306 79.681C344.327 79.6932 344.358 79.7108 344.397 79.7335C344.476 79.7789 344.591 79.8445 344.739 79.9281C345.035 80.0953 345.462 80.3342 345.995 80.6255C347.061 81.2075 348.556 82.0015 350.279 82.8508C353.676 84.5262 358.131 86.506 361.94 87.4296L363.118 82.5704C359.874 81.7837 355.83 80.0135 352.49 78.3665C350.844 77.5546 349.412 76.7942 348.392 76.2373C347.882 75.959 347.477 75.7323 347.201 75.5761C347.063 75.498 346.957 75.4377 346.887 75.3974C346.852 75.3772 346.826 75.3621 346.809 75.3524C346.8 75.3475 346.794 75.3439 346.79 75.3417C346.789 75.3406 346.787 75.3399 346.787 75.3395C346.786 75.3393 346.786 75.3391 346.786 75.3391C346.786 75.3391 346.786 75.3391 346.786 75.3391C346.786 75.3392 346.786 75.3393 345.529 77.5ZM361.94 87.4296C369.381 89.2342 378.748 90.7944 386.747 88.3946L385.31 83.6054C378.703 85.5878 370.498 84.3602 363.118 82.5704L361.94 87.4296ZM386.747 88.3946C391.652 86.9231 395.502 84.7945 398.539 82.4923L395.519 78.5077C392.934 80.4671 389.616 82.3137 385.31 83.6054L386.747 88.3946ZM398.539 82.4923C400.343 81.1245 401.961 79.5605 403.195 77.5385C404.437 75.505 405.212 73.1373 405.515 70.2617L400.543 69.7383C400.306 71.9877 399.728 73.622 398.927 74.9332C398.12 76.2559 397.007 77.3794 395.519 78.5077L398.539 82.4923ZM418.427 94.127C424.124 87.4807 430.766 79.8467 436.416 76.0801L433.642 71.9199C427.292 76.1533 420.168 84.4128 414.631 90.873L418.427 94.127ZM436.416 76.0801C440.204 73.5548 442.545 72.0106 444.979 70.8378C447.361 69.6898 449.907 68.8658 454.071 67.9405L452.986 63.0595C448.623 64.0291 445.669 64.9552 442.808 66.3334C439.999 67.6869 437.354 69.4452 433.642 71.9199L436.416 76.0801ZM448.968 117.961C455.923 116.719 469.209 111.963 480.862 104.615L478.195 100.385C467.021 107.432 454.335 111.924 448.089 113.039L448.968 117.961ZM480.862 104.615C487.414 100.483 493.398 95.6401 499.007 90.8805C504.664 86.0806 509.864 81.4355 515.044 77.4886L512.014 73.5114C506.694 77.5645 501.291 82.385 495.772 87.068C490.206 91.7913 484.439 96.4481 478.195 100.385L480.862 104.615ZM515.044 77.4886C525.633 69.4206 541.872 56.2164 556.123 34.3657L551.935 31.6343C538.142 52.7836 522.424 65.5794 512.014 73.5114L515.044 77.4886ZM567.029 0.5C566.053 0.5 565.284 0.973891 564.9 1.23619C564.43 1.55795 563.967 1.97289 563.528 2.41334C562.643 3.30209 561.613 4.54178 560.481 6.03836C558.203 9.04799 555.329 13.3398 552.092 18.5569C545.61 29.0043 537.573 43.3219 529.793 58.882L534.265 61.118C541.985 45.6781 549.948 31.4957 556.341 21.1931C559.541 16.0352 562.323 11.8895 564.468 9.05539C565.546 7.63009 566.419 6.59635 567.07 5.94213C567.4 5.61109 567.615 5.43717 567.723 5.36293C567.919 5.22923 567.629 5.5 567.029 5.5V0.5ZM532.029 57.5C527.593 57.5 521.145 57.2527 515.77 57.0027C513.09 56.8781 510.69 56.7534 508.961 56.6599C508.096 56.6131 507.399 56.5742 506.918 56.547C506.678 56.5334 506.492 56.5227 506.366 56.5154C506.303 56.5118 506.255 56.509 506.223 56.5071C506.207 56.5062 506.195 56.5055 506.187 56.505C506.183 56.5048 506.18 56.5046 506.178 56.5045C506.177 56.5044 506.177 56.5044 506.176 56.5044C506.176 56.5043 506.176 56.5043 506.176 56.5043C506.176 56.5043 506.176 56.5043 506.029 59C505.882 61.4957 505.882 61.4957 505.882 61.4957C505.882 61.4957 505.883 61.4957 505.883 61.4957C505.883 61.4958 505.884 61.4958 505.885 61.4959C505.888 61.496 505.891 61.4962 505.895 61.4964C505.903 61.4969 505.916 61.4977 505.932 61.4986C505.965 61.5005 506.014 61.5034 506.078 61.5071C506.205 61.5144 506.393 61.5252 506.635 61.539C507.12 61.5664 507.821 61.6056 508.691 61.6526C510.43 61.7466 512.842 61.8719 515.538 61.9973C520.913 62.2473 527.465 62.5 532.029 62.5V57.5ZM506.005 61.4999L557.505 61.9999L557.553 57.0001L506.053 56.5001L506.005 61.4999ZM557.344 57.0068L530.344 59.0068L530.713 63.9932L557.713 61.9932L557.344 57.0068ZM528.253 60.4655L525.753 65.9655L530.305 68.0345L532.805 62.5345L528.253 60.4655ZM577.029 109.5C577.029 109.008 577.355 108.014 578.591 106.529C579.768 105.115 581.525 103.552 583.734 101.97C588.146 98.8102 594.045 95.7965 599.819 93.8717L598.238 89.1283C592.013 91.2035 585.661 94.4398 580.823 97.905C578.407 99.6353 576.289 101.479 574.748 103.33C573.265 105.111 572.029 107.242 572.029 109.5H577.029ZM599.819 93.8717C610.648 90.2621 616.326 87.3559 626.878 87.9954L627.18 83.0046C615.407 82.291 608.553 85.69 598.238 89.1283L599.819 93.8717ZM594.995 54.0469C594.561 54.6541 593.308 56.0958 592.353 58.83C591.411 61.5276 590.771 65.3827 591.031 71.1135L596.026 70.8865C595.787 65.6173 596.393 62.4282 597.074 60.4787C597.742 58.5657 598.489 57.7575 599.064 56.9531L594.995 54.0469ZM591.047 71.2979C591.789 77.4808 592.333 84.4003 592.481 90.684C592.631 97.0287 592.37 102.516 591.591 105.946L596.467 107.054C597.392 102.984 597.631 96.9713 597.48 90.566C597.327 84.0997 596.769 77.0192 596.011 70.7021L591.047 71.2979Z" fill="#2cdd9b"/>
</svg>
